<svg width="19" height="15" viewBox="0 0 19 15" fill="none" xmlns="http://www.w3.org/2000/svg">
<path d="M17.2372 6.626V2.39487C17.2372 1.46205 16.4782 0.703125 15.5454 0.703125H3.45459C2.52177 0.703125 1.76284 1.46205 1.76284 2.39487V6.626C0.74768 6.90703 0 7.83848 0 8.94181V12.1567C0 12.4682 0.252566 12.7208 0.564062 12.7208H1.76284V13.7355C1.76284 14.047 2.01541 14.2996 2.32691 14.2996C2.6384 14.2996 2.89097 14.047 2.89097 13.7355V12.7208H16.109V13.7355C16.109 14.047 16.3616 14.2996 16.6731 14.2996C16.9846 14.2996 17.2372 14.047 17.2372 13.7355V12.7208H18.4359C18.7474 12.7208 19 12.4682 19 12.1567V8.94181C19 7.83848 18.2523 6.90703 17.2372 6.626ZM2.89097 2.39487C2.89097 2.08411 3.14383 1.83125 3.45459 1.83125H15.5455C15.8562 1.83125 16.1091 2.08411 16.1091 2.39487V6.53872H14.7874V5.40648C14.7874 4.42193 13.9864 3.62096 13.0019 3.62096H10.7215C10.2493 3.62096 9.81966 3.80551 9.50004 4.10591C9.18041 3.80554 8.75076 3.62096 8.27858 3.62096H5.99817C5.01362 3.62096 4.21266 4.42197 4.21266 5.40648V6.53872H2.89097V2.39487ZM13.6593 5.40648V6.53872H10.0641V5.40648C10.0641 5.04396 10.359 4.74909 10.7215 4.74909H13.0019C13.3644 4.74909 13.6593 5.04399 13.6593 5.40648ZM8.9359 5.40648V6.53872H5.34067V5.40648C5.34067 5.04396 5.63562 4.74909 5.99806 4.74909H8.27847C8.64099 4.74909 8.9359 5.04399 8.9359 5.40648ZM17.8719 11.5926H1.12812V8.94181C1.12812 8.23881 1.70005 7.66685 2.40309 7.66685H16.5969C17.2999 7.66685 17.8719 8.23878 17.8719 8.94181V11.5926Z" fill="white"/>
</svg>
