<svg width="19" height="15" viewBox="0 0 19 15" fill="none" xmlns="http://www.w3.org/2000/svg">
<path d="M18.2733 5.61281L17.8592 5.17435L16.4058 1.25662C16.1581 0.594865 15.5248 0.156404 14.8184 0.152344H4.43739C3.73098 0.152344 3.09765 0.594865 2.85 1.25662L1.41688 5.12563L0.820086 5.67777C0.300427 6.12029 0 6.76987 0 7.45192V13.16C0.00405983 14.0938 0.763248 14.8489 1.69701 14.8489H2.7688C3.70256 14.8489 4.46175 14.0938 4.46581 13.16V12.3318H14.5342V13.16C14.5382 14.0938 15.2974 14.8489 16.2312 14.8489H17.303C18.2368 14.8489 18.9959 14.0938 19 13.16V7.3017C18.9959 6.66431 18.7361 6.05534 18.2733 5.61281ZM3.61325 1.53269C3.74316 1.1876 4.07201 0.96431 4.43739 0.96431H14.8224C15.1878 0.96431 15.5167 1.19166 15.6466 1.53269L16.9132 4.94294H15.9673C15.744 3.42051 14.3271 2.36901 12.8047 2.59636C11.5908 2.77499 10.6368 3.72905 10.4581 4.94294H2.34658L3.61325 1.53269ZM15.1391 4.94294H11.2782C11.5015 3.87521 12.5489 3.19316 13.6167 3.41645C14.3799 3.57884 14.9767 4.17563 15.1391 4.94294ZM3.65385 13.16C3.64979 13.6472 3.25598 14.037 2.7688 14.037H1.69701C1.20983 14.037 0.816026 13.6472 0.811966 13.16V12.0964C1.05556 12.2547 1.37628 12.3318 1.69701 12.3318H3.65385V13.16ZM18.188 13.16C18.184 13.6472 17.7902 14.037 17.303 14.037H16.2312C15.744 14.037 15.3502 13.6432 15.3462 13.16V12.3318H17.303C17.6237 12.3318 17.9444 12.2547 18.188 12.0964V13.16ZM17.303 11.5199H1.69701C1.21389 11.5239 0.816026 11.1382 0.811966 10.6511V7.45192C0.811966 7.00533 1.0109 6.57905 1.35192 6.2908C1.35598 6.28675 1.3641 6.27863 1.36816 6.27457L1.9203 5.75491H17.2949L17.6846 6.17307C17.6887 6.18119 17.7009 6.18525 17.7049 6.19337C18.0094 6.48162 18.184 6.88354 18.184 7.3017V10.6511H18.188C18.184 11.1342 17.7861 11.5239 17.303 11.5199Z" fill="white"/>
</svg>
